<svg width="20" height="20" viewBox="0 0 20 20" fill="none" xmlns="http://www.w3.org/2000/svg">
<path d="M0.700005 0C0.514353 0 0.336304 0.0737498 0.205029 0.205025C0.0737534 0.336301 3.8147e-06 0.514348 3.8147e-06 0.7V8.978C0.000534058 10.7544 0.706522 12.4579 1.96274 13.714C3.21896 14.97 4.92257 15.6757 6.699 15.676L17.695 15.675L14.564 18.805C14.499 18.87 14.4474 18.9472 14.4123 19.0321C14.3771 19.117 14.359 19.2081 14.359 19.3C14.359 19.3919 14.3771 19.483 14.4123 19.5679C14.4474 19.6528 14.499 19.73 14.564 19.795C14.629 19.86 14.7062 19.9116 14.7911 19.9467C14.876 19.9819 14.9671 20 15.059 20C15.1509 20 15.242 19.9819 15.3269 19.9467C15.4118 19.9116 15.489 19.86 15.554 19.795L19.794 15.554C19.859 15.489 19.9106 15.4118 19.9458 15.3269C19.9809 15.242 19.9991 15.1509 19.9991 15.059C19.9991 14.9671 19.9809 14.876 19.9458 14.7911C19.9106 14.7062 19.859 14.629 19.794 14.564L15.553 10.323C15.488 10.258 15.4108 10.2064 15.3259 10.1713C15.241 10.1361 15.1499 10.118 15.058 10.118C14.9661 10.118 14.875 10.1361 14.7901 10.1713C14.7052 10.2064 14.628 10.258 14.563 10.323C14.498 10.388 14.4464 10.4652 14.4113 10.5501C14.3761 10.635 14.358 10.7261 14.358 10.818C14.358 10.9099 14.3761 11.001 14.4113 11.0859C14.4464 11.1708 14.498 11.248 14.563 11.313L17.528 14.276H6.698C5.29297 14.2757 3.94556 13.7175 2.95205 12.724C1.95853 11.7304 1.40027 10.383 1.4 8.978V0.7C1.4 0.514348 1.32625 0.336301 1.19498 0.205025C1.0637 0.0737498 0.885656 0 0.700005 0Z" fill="#5A5A5A"/>
</svg>
