<svg width="18" height="14" viewBox="0 0 18 14" fill="none" xmlns="http://www.w3.org/2000/svg">
<path d="M0.636048 6.29302C0.448577 6.48055 0.343262 6.73486 0.343262 7.00002C0.343262 7.26519 0.448577 7.5195 0.636048 7.70702L6.29305 13.364C6.3853 13.4595 6.49564 13.5357 6.61764 13.5881C6.73965 13.6405 6.87087 13.6681 7.00365 13.6693C7.13643 13.6704 7.26811 13.6451 7.391 13.5948C7.5139 13.5446 7.62555 13.4703 7.71944 13.3764C7.81334 13.2825 7.88759 13.1709 7.93787 13.048C7.98815 12.9251 8.01345 12.7934 8.0123 12.6606C8.01115 12.5278 7.98356 12.3966 7.93115 12.2746C7.87874 12.1526 7.80256 12.0423 7.70705 11.95L3.75705 8.00002L17 8.00002C17.2653 8.00002 17.5196 7.89467 17.7072 7.70713C17.8947 7.51959 18 7.26524 18 7.00002C18 6.73481 17.8947 6.48045 17.7072 6.29292C17.5196 6.10538 17.2653 6.00002 17 6.00002L3.75705 6.00002L7.70705 2.05002C7.88921 1.86142 7.99 1.60882 7.98772 1.34662C7.98544 1.08443 7.88027 0.833613 7.69487 0.648205C7.50946 0.462797 7.25865 0.357627 6.99645 0.355349C6.73425 0.35307 6.48165 0.453864 6.29305 0.636023L0.636048 6.29302Z" fill="#A29FAD"/>
</svg>
