<svg width="14" height="18" viewBox="0 0 14 18" fill="none" xmlns="http://www.w3.org/2000/svg">
<path d="M7.70685 0.635987C7.51933 0.448516 7.26502 0.343201 6.99985 0.343201C6.73469 0.343201 6.48038 0.448516 6.29285 0.635987L0.635855 6.29299C0.540345 6.38523 0.464162 6.49558 0.411753 6.61758C0.359344 6.73959 0.331758 6.87081 0.330604 7.00359C0.32945 7.13637 0.354752 7.26804 0.405033 7.39094C0.455314 7.51384 0.529567 7.62549 0.62346 7.71938C0.717353 7.81327 0.829004 7.88753 0.951901 7.93781C1.0748 7.98809 1.20648 8.01339 1.33926 8.01224C1.47204 8.01108 1.60325 7.9835 1.72526 7.93109C1.84726 7.87868 1.95761 7.8025 2.04985 7.70699L5.99985 3.75699L5.99985 17C5.99985 17.2652 6.10521 17.5196 6.29275 17.7071C6.48028 17.8946 6.73464 18 6.99985 18C7.26507 18 7.51942 17.8946 7.70696 17.7071C7.8945 17.5196 7.99985 17.2652 7.99985 17L7.99985 3.75699L11.9499 7.70699C12.1385 7.88914 12.3911 7.98994 12.6533 7.98766C12.9155 7.98538 13.1663 7.88021 13.3517 7.69481C13.5371 7.5094 13.6423 7.25858 13.6445 6.99639C13.6468 6.73419 13.546 6.48159 13.3639 6.29299L7.70685 0.635987Z" fill="#A29FAD"/>
</svg>
