<svg width="12" height="20" viewBox="0 0 12 20" fill="none" xmlns="http://www.w3.org/2000/svg">
<path fill-rule="evenodd" clip-rule="evenodd" d="M0.707 0.407964C-2.38419e-07 1.03496 0 2.18196 0 4.47496V15.523C0 17.816 -2.38419e-07 18.963 0.707 19.59C1.414 20.217 2.495 20.029 4.657 19.652L6.987 19.246C9.381 18.828 10.578 18.619 11.289 17.741C12 16.862 12 15.592 12 13.051V6.94696C12 4.40696 12 3.13696 11.29 2.25796C10.578 1.37996 9.38 1.17096 6.986 0.753964L4.658 0.346964C2.496 -0.0300364 1.415 -0.218036 0.708 0.408964L0.707 0.407964ZM3.75 8.95296C3.75 8.51896 3.414 8.16796 3 8.16796C2.586 8.16796 2.25 8.51896 2.25 8.95196V11.046C2.25 11.479 2.586 11.83 3 11.83C3.414 11.83 3.75 11.479 3.75 11.046V8.95196V8.95296Z" fill="#686868"/>
</svg>
