<svg width="58" height="58" viewBox="0 0 58 58" fill="none" xmlns="http://www.w3.org/2000/svg">
<rect x="0.483337" y="8.10022" width="50" height="50" rx="13" transform="rotate(-8.76242 0.483337 8.10022)" fill="#1C1B20"/>
<path d="M19.3 17.12H25.404L31.732 37H26.188L24.984 33.108H19.692L18.516 37H12.944L19.3 17.12ZM24.116 29.468L22.352 22.468L20.504 29.468L24.116 29.468ZM32.6558 32.8C32.6558 31.9227 32.9171 31.1667 33.4398 30.532C33.9624 29.8787 34.6811 29.3747 35.5958 29.02C36.5104 28.6467 37.5651 28.46 38.7598 28.46C39.5064 28.46 40.2811 28.5253 41.0838 28.656C41.8864 28.7867 42.6051 28.964 43.2398 29.188V27.816C43.2398 26.472 42.8478 25.3987 42.0638 24.596C41.2984 23.7933 40.2344 23.392 38.8718 23.392C38.1438 23.392 37.3878 23.5413 36.6038 23.84C35.8198 24.1387 35.0171 24.568 34.1958 25.128L33.6078 24.12C34.5598 23.4853 35.4744 23.0093 36.3518 22.692C37.2478 22.356 38.1344 22.188 39.0118 22.188C40.7478 22.188 42.1198 22.7013 43.1278 23.728C44.1358 24.7547 44.6398 26.1547 44.6398 27.928V35.152C44.6398 35.376 44.6864 35.544 44.7798 35.656C44.8918 35.768 45.0504 35.8333 45.2558 35.852V37C45.0878 37.0187 44.9478 37.028 44.8358 37.028C44.7238 37.028 44.6304 37.028 44.5558 37.028C44.2011 36.972 43.9211 36.8227 43.7158 36.58C43.5291 36.3373 43.4264 36.0667 43.4078 35.768V34.62C42.7358 35.46 41.8678 36.1133 40.8038 36.58C39.7584 37.0467 38.6571 37.28 37.4998 37.28C36.5851 37.28 35.7544 37.084 35.0078 36.692C34.2798 36.3 33.7011 35.768 33.2718 35.096C32.8611 34.4053 32.6558 33.64 32.6558 32.8ZM42.6798 34.004C42.8664 33.7613 43.0064 33.528 43.0998 33.304C43.1931 33.08 43.2398 32.8747 43.2398 32.688V30.28C42.5678 30.0187 41.8678 29.8227 41.1398 29.692C40.4118 29.5613 39.6651 29.496 38.8998 29.496C37.4438 29.496 36.2584 29.7853 35.3438 30.364C34.4478 30.9427 33.9998 31.7267 33.9998 32.716C33.9998 33.332 34.1584 33.9013 34.4758 34.424C34.7931 34.9467 35.2318 35.3667 35.7918 35.684C36.3704 36.0013 37.0331 36.16 37.7798 36.16C38.8251 36.16 39.7864 35.964 40.6638 35.572C41.5598 35.1613 42.2318 34.6387 42.6798 34.004Z" fill="#F7F8FA"/>
</svg>
