<svg width="18" height="14" viewBox="0 0 18 14" fill="none" xmlns="http://www.w3.org/2000/svg">
<path d="M17.364 7.707C17.5514 7.51947 17.6567 7.26516 17.6567 7C17.6567 6.73484 17.5514 6.48053 17.364 6.293L11.707 0.636C11.6147 0.540489 11.5044 0.464307 11.3824 0.411898C11.2604 0.359489 11.1291 0.331903 10.9964 0.330749C10.8636 0.329595 10.7319 0.354897 10.609 0.405178C10.4861 0.455459 10.3744 0.529712 10.2806 0.623605C10.1867 0.717497 10.1124 0.829149 10.0621 0.952045C10.0118 1.07494 9.98655 1.20662 9.9877 1.3394C9.98885 1.47218 10.0164 1.6034 10.0688 1.7254C10.1213 1.84741 10.1974 1.95775 10.293 2.05L14.243 6L0.999952 6C0.734735 6 0.480381 6.10536 0.292845 6.29289C0.105308 6.48043 -4.79636e-05 6.73478 -4.79752e-05 7C-4.79868e-05 7.26522 0.105308 7.51957 0.292844 7.70711C0.480381 7.89464 0.734735 8 0.999952 8L14.243 8L10.293 11.95C10.1108 12.1386 10.01 12.3912 10.0123 12.6534C10.0146 12.9156 10.1197 13.1664 10.3051 13.3518C10.4905 13.5372 10.7414 13.6424 11.0036 13.6447C11.2657 13.647 11.5183 13.5462 11.707 13.364L17.364 7.707Z" fill="#383641"/>
</svg>
